<?xml version="1.0" standalone="no"?>
<!DOCTYPE svg PUBLIC "-//W3C//DTD SVG 20010904//EN"
 "http://www.w3.org/TR/2001/REC-SVG-20010904/DTD/svg10.dtd">
<svg version="1.0" xmlns="http://www.w3.org/2000/svg"
 width="658.000000pt" height="658.000000pt" viewBox="0 0 658.000000 658.000000"
 preserveAspectRatio="xMidYMid meet">

<g transform="translate(0.000000,658.000000) scale(0.100000,-0.100000)"
fill="#000000" stroke="none">
<path d="M3045 6489 c-418 -34 -788 -136 -1160 -319 -252 -124 -448 -251 -660
-431 -90 -76 -293 -278 -327 -325 -13 -17 -59 -76 -103 -130 -250 -309 -466
-730 -574 -1121 -159 -570 -159 -1176 0 -1746 108 -391 323 -811 574 -1121 44
-54 93 -115 108 -135 80 -104 312 -320 483 -449 288 -218 686 -414 1040 -511
302 -84 540 -115 874 -115 334 0 572 31 874 115 361 100 748 291 1053 521 158
119 391 337 470 439 15 20 64 81 108 135 251 310 467 732 574 1120 84 302 115
540 115 874 0 334 -31 572 -115 874 -107 388 -324 811 -574 1120 -44 54 -90
113 -103 130 -34 47 -237 249 -327 325 -351 297 -771 521 -1202 640 -361 101
-764 140 -1128 110z m547 -646 c186 -306 327 -604 433 -913 43 -126 105 -333
105 -352 0 -4 -299 -8 -664 -8 l-663 0 -17 43 c-24 64 -91 160 -157 226 -32
33 -59 64 -59 69 0 23 135 332 214 491 87 173 162 305 264 464 l56 87 211 0
212 0 65 -107z m-1297 -205 c-75 -154 -143 -315 -217 -509 l-40 -106 -68 -22
c-181 -58 -318 -176 -405 -350 l-36 -71 -274 0 c-151 0 -275 4 -275 8 0 4 27
52 61 106 287 467 724 841 1234 1057 50 21 91 39 92 39 1 0 -31 -69 -72 -152z
m2087 87 c470 -208 894 -579 1177 -1028 34 -54 65 -105 68 -113 4 -12 -58 -14
-461 -14 l-465 0 -11 43 c-104 402 -233 763 -377 1050 -29 59 -49 107 -43 107
5 0 56 -20 112 -45z m-2759 -1757 c20 -29 62 -79 94 -110 l58 -58 -12 -152
c-23 -302 -12 -807 23 -1045 l6 -43 -519 0 -520 0 -21 73 c-52 176 -72 324
-79 572 -8 283 15 500 79 738 l20 77 417 0 418 0 36 -52z m2646 -60 c30 -287
38 -564 25 -840 l-7 -135 -71 -22 c-148 -46 -308 -173 -371 -294 l-30 -57
-737 0 -738 0 -5 23 c-11 49 -35 302 -45 474 -10 169 0 564 16 615 3 9 19 20
37 23 18 4 73 26 122 50 102 50 200 132 260 219 l38 56 747 0 747 0 12 -112z
m1596 55 c56 -193 85 -417 85 -663 0 -238 -19 -398 -87 -712 l-5 -28 -414 0
-413 0 -36 59 c-19 33 -67 91 -105 129 l-71 70 13 251 c13 265 2 606 -25 844
l-13 107 527 0 528 0 16 -57z m-3938 -2108 c80 -295 213 -656 331 -907 34 -71
56 -128 50 -128 -21 0 -285 133 -383 192 -297 182 -553 416 -762 696 -68 92
-193 289 -193 305 0 4 205 6 457 5 l456 -3 44 -160z m1903 88 c22 -42 64 -97
113 -147 42 -43 77 -84 77 -90 0 -17 -81 -227 -131 -343 -106 -243 -364 -702
-413 -735 -13 -9 -274 -8 -365 1 l-64 6 -79 130 c-156 257 -314 593 -411 872
-52 148 -107 333 -107 357 0 15 63 16 673 16 l672 0 35 -67z m1800 61 c0 -11
-79 -140 -142 -231 -238 -346 -585 -651 -968 -852 -113 -59 -273 -131 -291
-131 -5 0 21 59 57 132 68 136 187 421 245 589 l33 95 60 18 c34 9 90 34 126
53 89 49 215 178 260 265 l35 68 293 0 c160 0 292 -3 292 -6z"/>
</g>
</svg>
